<svg class="jaluzi-constructor__svg jaluzi-constructor__svg--2" xmlns="http://www.w3.org/2000/svg" width="598" height="598"><path class="jaluzi-constructor__svg-path" d="M174.5 349.56h264l5.5 8.5H170.34l4.16-8.5zm-60.5 0h54.5v8.5H109l5-8.5zm330 0h56.5l5.5 8.5h-62v-8.5zm-.66-18.65h56.5l5.5 8.5h-62v-8.5zm-330 0h54.5v8.5h-59.5l5-8.5zm60.5 0h264l5.5 8.5H169.69l4.15-8.5zm.66-20.16h264l5.5 8.5H170.34l4.16-8.5zm-60.5 0h54.5v8.5H109l5-8.5zm330 0h56.5l5.5 8.5h-62v-8.5zm-.33-20.25h56.5l5.5 8.5h-62v-8.5zm-330 0h54.5v8.5h-59.5l5-8.5zm60.5 0h264l5.5 8.5H170.02l4.15-8.5zm1.13-20.06h264l5.5 8.5H171.14l4.16-8.5zm-60.5 0h54.5v8.5h-59.5l5-8.5zm330 0h56.5l5.5 8.5h-62v-8.5zm-.8-19.66h56.5l5.5 8.5h-62v-8.5zm-330 0h54.5v8.5H109l5-8.5zm60.5 0h264l5.5 8.5H170.34l4.16-8.5zm1.12-20.15h264.01l5.5 8.5H171.47l4.15-8.5zm-60.5 0h54.5v8.5h-59.5l5-8.5zm330.01 0h56.5l5.5 8.5h-62v-8.5zM444 210.97h56.5l5.5 8.5h-62v-8.5zm-330 0h54.5v8.5H109l5-8.5zm60.5 0h264l5.5 8.5H170.34l4.16-8.5zm269.17-19.75h56.5l5.5 8.5h-62v-8.5zm-330 0h54.5v8.5h-59.5l5-8.5zm60.5 0h264l5.5 8.5H170.02l4.15-8.5zm0-21.34h264l5.5 8.5H170.02l4.15-8.5zm-60.5 0h54.5v8.5h-59.5l5-8.5zm330 0h56.5l5.5 8.5h-62v-8.5zm.33-17.85h56.5l5.5 8.5h-62v-8.5zm-330 0h54.5v8.5H109l5-8.5zm60.5 0h264l5.5 8.5H170.34l4.16-8.5zm0-21.34h264l5.5 8.5H170.34l4.16-8.5zm-60.5 0h54.5v8.5H109l5-8.5zm330 0h56.5l5.5 8.5h-62v-8.5zm0-18.85h56.5l5.5 8.5h-62v-8.5zm-330 0h54.5v8.5H109l5-8.5zm60.5 0h264l5.5 8.5H170.34l4.16-8.5zm0-21.34h264L444 99H170.34l4.16-8.5zm-60.5 0h54.5V99H109l5-8.5zm330 0h56.5L506 99h-62v-8.5z"/></svg>