<svg id="Слой_1" data-name="Слой 1" xmlns="http://www.w3.org/2000/svg" viewBox="0 0 259.62 223.87"><defs><style>.cls-1{fill:#ffce00;}</style></defs><title>Монтажная область 4</title><polygon class="cls-1" points="129.81 45.59 30.79 95.59 30.79 125.59 129.81 75.59 228.83 125.59 228.83 95.59 129.81 45.59"/><polygon class="cls-1" points="129.81 0 30.79 50 30.79 80 129.81 30 228.83 80 228.83 50 129.81 0"/><rect class="cls-1" y="138.39" width="259.62" height="85.48"/><path d="M39.4,199.61V170h8.21v11.09H58.15V170h8.21v29.64H58.15V188.34H47.61v11.26Z"/><path d="M69.25,199.61l12.62-29.85h7.92l12.62,29.85H93.59l-2.16-5.29H80l-2.12,5.29Zm13.17-11.69h6.65l-3.3-8.43Z"/><path d="M105.28,199.61V170h15.2q5.42,0,8.09,2.67a6.59,6.59,0,0,1,1.91,4.87q0,4.62-4.57,6.61a9.52,9.52,0,0,1,4.38,2.67,6.87,6.87,0,0,1,1.5,4.66,7,7,0,0,1-3,6q-3,2.18-8.26,2.18Zm8-17.83h5.17q3.89,0,3.9-2.67t-3.73-2.54h-5.34Zm0,11.22h6.35q3.94,0,3.94-2.79t-4-2.67h-6.27Z"/><path d="M135.55,199.61V170h23.84v7H143.68v4.49h14.23v6.48H143.68v4.7H159.6v7Z"/><path d="M163.79,199.61V170h12.7q5.67,0,9,2.77a10.61,10.61,0,0,1-.19,15.6,14.39,14.39,0,0,1-9.23,2.79H172v8.47ZM172,184.7h3.9a5.17,5.17,0,0,0,3.45-1.06,3.58,3.58,0,0,0,1.25-2.88,3.49,3.49,0,0,0-1.25-2.9,5.48,5.48,0,0,0-3.49-1H172Z"/><path d="M190.13,199.61l10.16-15.07L190.55,170H200l5.25,8.34,5.29-8.34h9.23L210,184.45l10.16,15.16h-9.44l-5.67-8.93-5.72,8.93Z"/></svg>