<svg id="Слой_1" data-name="Слой 1" xmlns="http://www.w3.org/2000/svg" viewBox="0 0 259.62 223.87"><defs><style>.cls-1{fill:#ffce00}</style></defs><path class="cls-1" d="M129.81 45.59l-99.02 50v30l99.02-50 99.02 50v-30l-99.02-50z"/><path class="cls-1" d="M129.81 0L30.79 50v30l99.02-50 99.02 50V50L129.81 0zM0 138.39h259.62v85.48H0z"/><path d="M39.4 199.61V170h8.21v11.09h10.54V170h8.21v29.64h-8.21v-11.3H47.61v11.26zm29.85 0l12.62-29.85h7.92l12.62 29.85h-8.82l-2.16-5.29H80l-2.12 5.29zm13.17-11.69h6.65l-3.3-8.43zm22.86 11.69V170h15.2q5.42 0 8.09 2.67a6.59 6.59 0 011.91 4.87q0 4.62-4.57 6.61a9.52 9.52 0 014.38 2.67 6.87 6.87 0 011.5 4.66 7 7 0 01-3 6q-3 2.18-8.26 2.18zm8-17.83h5.17q3.89 0 3.9-2.67t-3.73-2.54h-5.34zm0 11.22h6.35q3.94 0 3.94-2.79t-4-2.67h-6.27zm22.27 6.61V170h23.84v7h-15.71v4.49h14.23v6.48h-14.23v4.7h15.92v7zm28.24 0V170h12.7q5.67 0 9 2.77a10.61 10.61 0 01-.19 15.6 14.39 14.39 0 01-9.23 2.79H172v8.47zM172 184.7h3.9a5.17 5.17 0 003.45-1.06 3.58 3.58 0 001.25-2.88 3.49 3.49 0 00-1.25-2.9 5.48 5.48 0 00-3.49-1H172zm18.13 14.91l10.16-15.07-9.74-14.54H200l5.25 8.34 5.29-8.34h9.23L210 184.45l10.16 15.16h-9.44l-5.67-8.93-5.72 8.93z"/></svg>